<svg width="38" height="38" viewBox="0 0 38 38" fill="none" xmlns="http://www.w3.org/2000/svg">
<path fill-rule="evenodd" clip-rule="evenodd" d="M18.1254 7.45771C19.5887 6.74965 21.2879 6.41923 22.9399 6.60805C24.8279 6.79686 26.6687 7.74096 27.9903 9.1099C28.8399 10.0068 29.5479 11.0925 29.8783 12.3198C29.9727 12.6503 30.0671 12.9335 30.2559 13.2167C30.4919 13.4999 30.8695 13.5944 31.1999 13.6888C31.7191 13.7832 32.2855 13.9248 32.7575 14.1608C34.4095 14.7745 35.7783 16.0018 36.7223 17.5124C37.5247 18.8813 37.9495 20.4863 37.9967 22.0913C38.0439 23.8378 37.5719 25.5844 36.7223 27.095C36.2975 27.8503 35.6839 28.4639 35.0231 29.0304C33.8903 29.9745 32.4743 30.4465 31.0583 30.8242C30.6335 30.9186 30.1143 31.0602 29.6895 30.8242C28.4151 30.2105 27.1879 29.6913 25.9607 29.0776C25.4415 28.8888 24.9695 28.6528 24.4975 28.3695C25.2527 28.2279 26.0079 28.1807 26.7631 28.0863C28.2263 27.8503 29.7367 27.567 31.1055 26.859C32.4271 26.2453 33.5127 25.0652 33.8431 23.649C34.2207 22.3273 33.9847 20.9111 33.3711 19.731C32.5687 18.2677 31.1055 17.2764 29.5007 16.9459C28.8399 16.8043 28.1319 16.8987 27.4711 16.8043C27.1407 16.8043 26.8103 16.5683 26.7159 16.1907C26.6687 15.9074 26.6687 15.6242 26.6687 15.341C26.7631 12.5086 24.4503 9.72357 21.5711 9.58193C20.0135 9.48754 18.4559 10.054 17.3231 11.1397C16.4734 11.9894 15.9542 13.0751 15.3879 14.0664C15.2463 13.4999 15.1518 12.8863 15.1047 12.2726C14.9158 11.0453 15.3879 9.72357 16.2847 8.87387C16.8039 8.30741 17.4175 7.78817 18.1254 7.45771Z" fill="white"/>
<path fill-rule="evenodd" clip-rule="evenodd" d="M3.8236 14.963C5.33399 13.8773 7.22202 13.3109 9.06279 13.2637C11.0452 13.2637 13.0276 13.9246 14.5852 15.1991C15.5764 15.9072 16.2844 16.8984 16.8036 18.0314C17.9836 20.486 17.9836 23.3184 19.0692 25.773C19.6828 27.2363 20.8157 28.5109 22.2788 29.2189C23.5061 29.8798 24.8748 30.2575 26.1492 30.7767C26.4325 30.8711 26.6684 31.0127 26.9517 31.2016C26.1492 31.3432 25.3468 31.3432 24.5916 31.4376C23.4116 31.532 22.2317 31.3904 21.0988 31.1072C19.6828 30.7295 18.4556 29.927 17.4172 28.9357C16.5676 27.9916 15.8596 26.9059 15.4348 25.7258C14.8684 24.168 14.7268 22.4686 14.2548 20.8637C14.0188 20.1084 13.7828 19.4003 13.3108 18.7867C12.7444 18.0786 12.0364 17.5121 11.234 17.1817C10.2428 16.8041 9.2044 16.7568 8.16599 16.8513C6.32522 17.1345 4.67318 18.409 3.918 20.1084C3.2572 21.6662 3.3516 23.46 4.15398 24.9705C4.95639 26.4811 6.46682 27.614 8.16599 27.8972C9.11001 28.086 10.1484 27.85 10.998 27.4251C11.6116 27.1419 12.0836 26.6699 12.6028 26.2922C12.7916 26.8587 12.9332 27.4251 13.2636 27.9916C13.4996 28.5109 13.9244 28.9357 14.2548 29.4078C13.2636 30.3991 11.8476 30.8711 10.526 31.1543C8.87401 31.532 7.1748 31.3432 5.66441 30.7767C4.05959 30.1159 2.6436 29.0301 1.69959 27.614C0.94439 26.5755 0.472391 25.3481 0.141988 24.1208C-0.0468121 23.2239 0.000388084 22.2798 0.0475881 21.3829C0.283589 18.8339 1.69959 16.4264 3.8236 14.963Z" fill="white"/>
</svg>
