<svg width="58" height="58" viewBox="0 0 58 58" fill="none" xmlns="http://www.w3.org/2000/svg">
<rect width="58" height="58" rx="29" fill="white"/>
<rect x="6" y="6" width="46" height="46" rx="23" fill="white" stroke="#2F7ABF" stroke-width="2"/>
<path d="M28.024 16.736C29.656 16.736 31.06 17.324 32.236 18.5C33.412 19.676 34 21.092 34 22.748C34 24.404 33.412 25.82 32.236 26.996C31.06 28.172 29.656 28.76 28.024 28.76C26.392 28.76 24.988 28.172 23.812 26.996C22.636 25.82 22.048 24.404 22.048 22.748C22.048 21.092 22.636 19.676 23.812 18.5C24.988 17.324 26.392 16.736 28.024 16.736ZM28.024 31.784C30.184 31.784 32.188 32.06 34.036 32.612C35.884 33.14 37.348 33.86 38.428 34.772C39.508 35.684 40.048 36.68 40.048 37.76V40.784H16V37.76C16 36.68 16.54 35.684 17.62 34.772C18.7 33.86 20.164 33.14 22.012 32.612C23.86 32.06 25.864 31.784 28.024 31.784Z" fill="#2F7ABF"/>
</svg>
